# xmcd CD database file
#
# Track frame offsets:
#	150
#	13293
#	28714
#	43433
#	58225
#	73698
#	89004
#	103183
#	121140
#	136492
#	151801
#	168890
#	182416
#	197374
#	210442
#	223210
#	235746
#	247856
#	263533
#	276235
#
# Disc length: 3855 seconds
#
# Revision: 1
# Processed by: cddbd v1.5.2PL0 Copyright (c) Steve Scherf et al.
# Submitted via: CDex 1.70beta2
#
DISCID=200f0d14
DTITLE=Roy Eldridge - Jazz Roads CD113 - Swing - Vol.5 (1950-51)
DYEAR=2006
DGENRE=Jazz
TTITLE0=Roy  King Jazz And His Orchestra - I Remember Harlem 
TTITLE1=Roy  King Jazz And His Orchestra - Baby Don't Do Me Like That 
TTITLE2=Roy  King Jazz And His Orchestra - Une Petit Laitue 
TTITLE3=Roy  King Jazz And His Orchestra - L'Isle Adam 
TTITLE4=Roy  King Jazz And His Orchestra - Black And Blue 
TTITLE5=Roy  King Jazz And His Orchestra - Tu Disais Que Tu M'amais 
TTITLE6=Roy Eldridge Quintet - Oh, Shut Up 
TTITLE7=Roy Eldridge Quintet - Hollywood Pastime 
TTITLE8=Roy Eldridge Quintet - I'd Love Him So 
TTITLE9=Roy Eldridge Quintet - Tres Chaud (The Heat Is On) 
TTITLE10=Roy Eldridge - Wild Man Blues 
TTITLE11=Roy Eldridge - Fireworks 
TTITLE12=Roy Eldridge And His Orchestra - Baby, What's The Matter With You
TTITLE13=Roy Eldridge And His Orchestra - Yard Dog 
TTITLE14=Roy Eldridge And His Orchestra - Sweet Lorraine 
TTITLE15=Roy Eldridge And His Orchestra - Jumbo The Elephant 
TTITLE16=Roy Eldridge With George Williams' Orchestra - Basin Street Blues 
TTITLE17=Roy Eldridge With George Williams' Orchestra - I Remember Harlem 
TTITLE18=Roy Eldridge With George Williams' Orchestra - Easter Parade 
TTITLE19=Roy Eldridge With George Williams' Orchestra - I See Everybody's Baby 
EXTD=YEAR: 2006
EXTT0=
EXTT1=
EXTT2=
EXTT3=
EXTT4=
EXTT5=
EXTT6=
EXTT7=
EXTT8=
EXTT9=
EXTT10=
EXTT11=
EXTT12=
EXTT13=
EXTT14=
EXTT15=
EXTT16=
EXTT17=
EXTT18=
EXTT19=
PLAYORDER=
